<?xml version="1.0" encoding="UTF-8" standalone="no"?>
<!DOCTYPE svg PUBLIC "-//W3C//DTD SVG 1.1//EN" "http://www.w3.org/Graphics/SVG/1.1/DTD/svg11.dtd">
<svg width="100%" height="100%" viewBox="0 0 800 800" version="1.1" xmlns="http://www.w3.org/2000/svg" xmlns:xlink="http://www.w3.org/1999/xlink" xml:space="preserve" xmlns:serif="http://www.serif.com/" style="fill-rule:evenodd;clip-rule:evenodd;stroke-linecap:round;stroke-linejoin:round;stroke-miterlimit:1.5;">
    <g transform="matrix(1.791667,0,0,1.791667,175.666667,128.666667)">
        <path d="M128,84C103.862,84 84,103.862 84,128C84,152.138 103.862,172 128,172C152.138,172 172,152.138 172,128C171.973,103.873 152.127,84.027 128,84ZM128,164C108.251,164 92,147.749 92,128C92,108.251 108.251,92 128,92C147.749,92 164,108.251 164,128C163.978,147.741 147.741,163.978 128,164ZM172,32L84,32C55.486,32.032 32.032,55.486 32,84L32,172C32.032,200.514 55.486,223.968 84,224L172,224C200.514,223.968 223.968,200.514 224,172L224,84C223.968,55.486 200.514,32.032 172,32ZM216,172C215.973,196.127 196.127,215.973 172,216L84,216C59.873,215.973 40.027,196.127 40,172L40,84C40.027,59.873 59.873,40.027 84,40L172,40C196.127,40.027 215.973,59.873 216,84L216,172ZM188,76C188,80.389 184.389,84 180,84C175.611,84 172,80.389 172,76C172,71.611 175.611,68 180,68C184.387,68.005 187.995,71.613 188,76Z" style="fill-rule:nonzero;"/>
    </g>
    <g transform="matrix(1,0,0,1,-21,4)">
        <path d="M759,235.75L759,449.25C759,508.167 711.167,556 652.25,556L540.368,556C540.368,556 340.97,673.583 261.84,720.245C256.201,723.569 249.138,723.281 243.79,719.507C238.441,715.733 235.802,709.174 237.045,702.748C247.362,649.4 265.424,556 265.424,556L238.75,556C179.833,556 132,508.167 132,449.25L132,235.75C132,176.833 179.833,129 238.75,129L652.25,129C711.167,129 759,176.833 759,235.75Z" style="fill:rgb(235,235,235);fill-opacity:0;stroke:black;stroke-width:13px;"/>
    </g>
</svg>
